<svg width="142" height="162" xmlns="http://www.w3.org/2000/svg">

 <g>
  <title>background</title>
  <rect fill="none" id="canvas_background" height="164" width="144" y="-1" x="-1"/>
 </g>
 <g>
  <title>Layer 1</title>
  <polygon stroke="null" fill="#ffffff" id="svg_3" points="126.79331970214844,107.580078125 70.59330749511719,140.98007202148438 13.59332275390625,108.98007202148438 12.793319702148438,43.580078125 70.59330749511719,17.580078125 125.99333190917969,42.180084228515625 " class="st0"/>
  <path stroke="null" id="svg_5" d="m125.49332,105.380078c-18.7,11.1 -37.5,22.2 -56.2,33.4c0.8,0 1.7,0 2.5,0c-19,-10.7 -38,-21.3 -57,-32c0.4,0.7 0.8,1.4 1.2,2.2c-0.3,-21.8 -0.5,-43.6 -0.8,-65.4c-0.4,0.7 -0.8,1.4 -1.2,2.2c19.3,-8.7 38.5,-17.3 57.8,-26c-0.8,0 -1.7,0 -2.5,0c18.5,8.2 37,16.4 55.4,24.6c-0.4,-0.7 -0.8,-1.4 -1.2,-2.2c0.3,21.8 0.5,43.6 0.8,65.4c0,3.2 5,3.2 5,0c-0.3,-21.8 -0.5,-43.6 -0.8,-65.4c0,-0.8 -0.5,-1.8 -1.2,-2.2c-16.9,-7.5 -33.7,-15 -50.6,-22.5c-1.6,-0.7 -4.2,-2.5 -6.1,-2.5c-1.9,0 -4.4,1.8 -6.1,2.5c-9.8,4.4 -19.7,8.8 -29.5,13.3c-7.8,3.5 -15.7,7.1 -23.5,10.6c-0.8,0.3 -1.2,1.4 -1.2,2.2c0.3,21.8 0.5,43.6 0.8,65.4c0,0.9 0.5,1.7 1.2,2.2c17,9.5 34,19.1 51,28.6c1.9,1 4,2.8 6,3.4c2.3,0.7 4,-0.9 6,-2.1c9.6,-5.7 19.2,-11.4 28.9,-17.1c8,-4.7 15.9,-9.4 23.9,-14.2c2.7,-1.7 0.2,-6 -2.6,-4.4z"/>
  <path id="svg_8" d="m73.09332,140.980078c-0.3,-24.1 -0.5,-48.2 -0.8,-72.4c0,-0.8 -0.5,-1.8 -1.2,-2.2c-19,-8.3 -38,-16.7 -57,-25c-2.9,-1.3 -5.5,3 -2.5,4.3c17,7.4 34,14.9 51,22.3c1.9,0.8 4,2.2 6,2.7c2.3,0.5 3.8,-0.6 5.9,-1.6c9.7,-4.6 19.5,-9.1 29.2,-13.7c7.9,-3.7 15.8,-7.4 23.6,-11.1c2.9,-1.4 0.4,-5.7 -2.5,-4.3c-18.7,8.8 -37.5,17.6 -56.2,26.4c0.8,0 1.7,0 2.5,0c-19,-8.3 -38,-16.7 -57,-25c-2.9,-1.3 -5.5,3 -2.5,4.3c19,8.3 38,16.7 57,25c-0.4,-0.7 -0.8,-1.4 -1.2,-2.2c0.3,24.1 0.5,48.2 0.8,72.4c-0.1,3.3 4.9,3.3 4.9,0.1l0,0z"/>
 </g>
</svg>